<?xml version="1.0" encoding="UTF-8"?>
<svg width="32" height="32" viewBox="0 0 32 32" fill="none" xmlns="http://www.w3.org/2000/svg">
  <path d="M16 2C8.268 2 2 8.268 2 16s6.268 14 14 14 14-6.268 14-14S23.732 2 16 2z" fill="#4F46E5"/>
  <path d="M22 12c0-1.657-1.343-3-3-3s-3 1.343-3 3c0 .31.047.607.134.887C15.51 13.637 15 14.76 15 16c0 2.21 1.79 4 4 4s4-1.79 4-4c0-1.24-.51-2.363-1.134-3.113C21.953 12.607 22 12.31 22 12z" fill="white"/>
  <path d="M13 11c0-1.657-1.343-3-3-3s-3 1.343-3 3c0 .31.047.607.134.887C6.51 12.637 6 13.76 6 15c0 2.21 1.79 4 4 4s4-1.79 4-4c0-1.24-.51-2.363-1.134-3.113C12.953 11.607 13 11.31 13 11z" fill="white"/>
  <path d="M16 20c-2.21 0-4 1.79-4 4h8c0-2.21-1.79-4-4-4z" fill="white"/>
</svg> 